<svg width="18" height="19" viewBox="0 0 18 19" fill="none" xmlns="http://www.w3.org/2000/svg">
<path fill-rule="evenodd" clip-rule="evenodd" d="M1.93837 7.00075C1.93837 5.14404 2.67595 3.36337 3.98884 2.05047C5.30174 0.737577 7.08241 0 8.93912 0C10.7958 0 12.5765 0.737577 13.8894 2.05047C15.2023 3.36337 15.9399 5.14404 15.9399 7.00075V10.7652L17.7621 14.4096C17.846 14.5773 17.8856 14.7637 17.8771 14.951C17.8687 15.1384 17.8125 15.3205 17.7139 15.48C17.6153 15.6395 17.4776 15.7712 17.3138 15.8625C17.1499 15.9538 16.9655 16.0018 16.778 16.0017H12.8135C12.5911 16.8601 12.0899 17.6202 11.3887 18.1629C10.6874 18.7055 9.82582 19 8.93912 19C8.05243 19 7.19084 18.7055 6.4896 18.1629C5.78836 17.6202 5.28717 16.8601 5.06471 16.0017H1.10028C0.912739 16.0018 0.728303 15.9538 0.564491 15.8625C0.400678 15.7712 0.262929 15.6395 0.164326 15.48C0.0657221 15.3205 0.00953874 15.1384 0.00111141 14.951C-0.00731592 14.7637 0.0322927 14.5773 0.116175 14.4096L1.93837 10.7652V7.00075ZM7.20694 16.0017C7.3825 16.3058 7.635 16.5583 7.93906 16.7338C8.24312 16.9093 8.58803 17.0017 8.93912 17.0017C9.29022 17.0017 9.63513 16.9093 9.93919 16.7338C10.2432 16.5583 10.4957 16.3058 10.6713 16.0017H7.20694ZM8.93912 2.00022C7.6129 2.00022 6.34099 2.52706 5.40321 3.46484C4.46543 4.40262 3.93859 5.67453 3.93859 7.00075V10.7652C3.93857 11.0755 3.86632 11.3816 3.72756 11.6593L2.55744 14.0015H15.3218L14.1517 11.6593C14.0126 11.3817 13.94 11.0756 13.9397 10.7652V7.00075C13.9397 5.67453 13.4128 4.40262 12.475 3.46484C11.5373 2.52706 10.2653 2.00022 8.93912 2.00022Z" fill="#2A2A2A"/>
</svg>
