<svg width="324" height="50" viewBox="0 0 324 50" fill="none" xmlns="http://www.w3.org/2000/svg">
<rect y="5" width="261" height="34" rx="17" fill="white"/>
<circle cx="299" cy="25" r="25" fill="#FF84B8"/>
<path d="M313.167 18.9167H294.75M284.833 18.9167H289.083M308.917 26H304.667M289.083 26H299M304.667 33.0833H293.333" stroke="black" stroke-width="1.5" stroke-linecap="round"/>
<g clip-path="url(#clip0_56_244)">
<path fill-rule="evenodd" clip-rule="evenodd" d="M25.0827 11C23.9532 11.0001 22.8401 11.2838 21.8363 11.8275C20.8324 12.3711 19.967 13.159 19.3121 14.1253C18.6572 15.0916 18.2319 16.2083 18.0717 17.3823C17.9114 18.5563 18.0209 19.7535 18.3909 20.874C18.7609 21.9945 19.3808 23.0059 20.1988 23.8238C21.0168 24.6416 22.0092 25.2422 23.0932 25.5754C24.1772 25.9086 25.3213 25.9648 26.4302 25.7393C27.5391 25.5138 28.5806 25.0131 29.4677 24.279L32.5111 27.4745C32.6682 27.6339 32.8787 27.7221 33.0972 27.7201C33.3157 27.7181 33.5247 27.6261 33.6792 27.4638C33.8338 27.3016 33.9214 27.0821 33.9233 26.8527C33.9252 26.6233 33.8412 26.4023 33.6894 26.2373L30.6461 23.0418C31.4694 21.945 31.982 20.6271 32.1253 19.2388C32.2686 17.8504 32.0367 16.4478 31.4563 15.1913C30.8758 13.9349 29.9701 12.8754 28.843 12.1342C27.7158 11.393 26.4127 10.9999 25.0827 11ZM19.6661 18.4375C19.6661 16.9291 20.2367 15.4824 21.2526 14.4158C22.2684 13.3492 23.6461 12.75 25.0827 12.75C26.5193 12.75 27.8971 13.3492 28.9129 14.4158C29.9287 15.4824 30.4994 16.9291 30.4994 18.4375C30.4994 19.9459 29.9287 21.3926 28.9129 22.4592C27.8971 23.5258 26.5193 24.125 25.0827 24.125C23.6461 24.125 22.2684 23.5258 21.2526 22.4592C20.2367 21.3926 19.6661 19.9459 19.6661 18.4375Z" fill="#030303"/>
</g>
<defs>
<clipPath id="clip0_56_244">
<rect width="20" height="21" fill="white" transform="translate(16 9)"/>
</clipPath>
</defs>
</svg>
