<svg width="20" height="20" viewBox="0 0 20 20" fill="none" xmlns="http://www.w3.org/2000/svg">
<path d="M10.0001 4.58334L9.55008 5.01667C9.60838 5.07716 9.67828 5.12527 9.7556 5.15814C9.83292 5.191 9.91607 5.20794 10.0001 5.20794C10.0841 5.20794 10.1672 5.191 10.2446 5.15814C10.3219 5.12527 10.3918 5.07716 10.4501 5.01667L10.0001 4.58334ZM5.83425 13.6833C5.70606 13.5779 5.54124 13.5277 5.37605 13.5438C5.21087 13.5599 5.05884 13.641 4.95341 13.7692C4.84799 13.8974 4.79781 14.0622 4.8139 14.2274C4.83 14.3926 4.91106 14.5446 5.03925 14.65L5.83425 13.6833ZM1.95175 11.1758C1.99114 11.2478 2.04434 11.3114 2.10829 11.3628C2.17225 11.4143 2.24571 11.4526 2.32448 11.4757C2.40326 11.4988 2.4858 11.5061 2.56741 11.4972C2.64901 11.4884 2.72807 11.4636 2.80008 11.4242C2.87209 11.3848 2.93563 11.3316 2.98708 11.2676C3.03853 11.2037 3.07688 11.1302 3.09994 11.0514C3.123 10.9727 3.13032 10.8901 3.12148 10.8085C3.11264 10.7269 3.08781 10.6478 3.04841 10.5758L1.95175 11.1758ZM2.29175 7.61417C2.29175 5.8225 3.30425 4.31917 4.68675 3.68667C6.03008 3.0725 7.83508 3.235 9.55008 5.01667L10.4501 4.15084C8.41675 2.03667 6.05341 1.6875 4.16675 2.55C2.32175 3.39417 1.04175 5.35417 1.04175 7.61417H2.29175ZM7.08091 16.25C7.50841 16.5867 7.96675 16.945 8.43091 17.2167C8.89508 17.4883 9.42508 17.7083 10.0001 17.7083V16.4583C9.74175 16.4583 9.43841 16.3583 9.06175 16.1375C8.68425 15.9175 8.29341 15.6142 7.85508 15.2683L7.08091 16.25ZM12.9192 16.25C14.1076 15.3125 15.6276 14.2392 16.8192 12.8967C18.0334 11.53 18.9584 9.83584 18.9584 7.61417H17.7084C17.7084 9.44584 16.9584 10.8567 15.8851 12.0667C14.7892 13.3 13.4084 14.2725 12.1451 15.2683L12.9192 16.25ZM18.9584 7.61417C18.9584 5.35417 17.6792 3.39417 15.8334 2.55C13.9467 1.6875 11.5851 2.03667 9.55008 4.15L10.4501 5.01667C12.1651 3.23584 13.9701 3.0725 15.3134 3.68667C16.6959 4.31917 17.7084 5.82167 17.7084 7.61417H18.9584ZM12.1451 15.2683C11.7067 15.6142 11.3159 15.9175 10.9384 16.1375C10.5609 16.3575 10.2584 16.4583 10.0001 16.4583V17.7083C10.5751 17.7083 11.1051 17.4875 11.5692 17.2167C12.0342 16.945 12.4917 16.5867 12.9192 16.25L12.1451 15.2683ZM7.85508 15.2683C7.19175 14.7458 6.51758 14.2458 5.83425 13.6833L5.03925 14.65C5.73091 15.2192 6.46258 15.7625 7.08091 16.25L7.85508 15.2683ZM3.04841 10.5767C2.54635 9.67038 2.28578 8.65021 2.29175 7.61417H1.04175C1.04175 8.97917 1.39175 10.1517 1.95175 11.1758L3.04841 10.5767Z" fill="#D8D8D8"/>
</svg>
